<?xml version="1.0" encoding="utf-8"?><svg xmlns="http://www.w3.org/2000/svg" xmlns:xlink="http://www.w3.org/1999/xlink"><symbol viewBox="0 0 10 17" id="arrow" xmlns="http://www.w3.org/2000/svg"><path d="M8.33374 1.83337L1.66707 8.50004L8.33374 15.1667" stroke-opacity="0.4" stroke-width="3" stroke-linecap="round" stroke-linejoin="round"/></symbol><symbol viewBox="0 0 6 13" id="arrow-back" xmlns="http://www.w3.org/2000/svg"><path d="M5 1.5L1 6.5L5 11.5" stroke-width="2" stroke-linecap="round" stroke-linejoin="round"/></symbol><symbol viewBox="0 0 24 24" id="box-message" xmlns="http://www.w3.org/2000/svg"><path d="M8 14H16M8 10H12M21.9664 11.2166C21.9886 11.4748 22 11.7361 22 12C22 16.9706 17.9706 21 13 21H6C3.79086 21 2 19.2091 2 17V12C2 7.02944 6.02944 3 11 3H13C13.2639 3 13.5252 3.01136 13.7834 3.03362M22 6C22 7.65685 20.6569 9 19 9C17.3431 9 16 7.65685 16 6C16 4.34315 17.3431 3 19 3C20.6569 3 22 4.34315 22 6Z" stroke-width="1.5" stroke-linecap="round"/><circle cx="19" cy="6" r="5"/></symbol><symbol viewBox="0 0 24 24" id="box-no-message" xmlns="http://www.w3.org/2000/svg"><path d="M8 10H16M8 14H12M11 3H13C17.9706 3 22 7.02944 22 12C22 16.9706 17.9706 21 13 21H6C3.79086 21 2 19.2091 2 17V12C2 7.02944 6.02944 3 11 3Z" stroke-width="1.5" stroke-linecap="round"/></symbol><symbol viewBox="0 0 24 24" id="exit" xmlns="http://www.w3.org/2000/svg"><path fill-rule="evenodd" clip-rule="evenodd" d="M6.47458 2.71551C8.16252 1.59021 10.3797 2.62186 10.7085 4.51661H14C15.5188 4.51661 16.75 5.74783 16.75 7.26661C16.75 7.68083 16.4142 8.01661 16 8.01661C15.5858 8.01661 15.25 7.68083 15.25 7.26661C15.25 6.57626 14.6904 6.01661 14 6.01661H10.75V18.5166H14C14.6904 18.5166 15.25 17.957 15.25 17.2666C15.25 16.8524 15.5858 16.5166 16 16.5166C16.4142 16.5166 16.75 16.8524 16.75 17.2666C16.75 18.7854 15.5188 20.0166 14 20.0166H10.7085C10.3797 21.9114 8.16252 22.943 6.47458 21.8177L4.47457 20.4844C3.70953 19.9744 3.25 19.1157 3.25 18.1962V6.33698C3.25 5.41751 3.70953 4.55887 4.47457 4.04884L6.47458 2.71551ZM17.4697 14.5306C17.1768 14.2377 17.1768 13.7628 17.4697 13.4699L18.1893 12.7502L13 12.7502C12.5858 12.7502 12.25 12.4145 12.25 12.0002C12.25 11.586 12.5858 11.2502 13 11.2502L18.1893 11.2502L17.4697 10.5306C17.1768 10.2377 17.1768 9.76281 17.4697 9.46991C17.7626 9.17702 18.2374 9.17702 18.5303 9.46991L19.8232 10.7628C20.5066 11.4462 20.5066 12.5543 19.8232 13.2377L18.5303 14.5306C18.2374 14.8235 17.7626 14.8235 17.4697 14.5306Z"/></symbol><symbol viewBox="0 0 26 21" id="hide-pass" xmlns="http://www.w3.org/2000/svg"><path d="M3.33333 1L22 19.6667M15 12.9421C14.3808 13.4963 13.5631 13.8333 12.6667 13.8333C10.7337 13.8333 9.16667 12.2663 9.16667 10.3333C9.16667 9.43692 9.50366 8.61922 10.0579 8M21.5424 14.5423C22.209 13.962 22.8053 13.3782 23.3187 12.8381C24.6716 11.4146 24.6716 9.25203 23.3187 7.82862C21.0369 5.42789 17.1181 2.16667 12.6667 2.16667C11.6267 2.16667 10.6159 2.34466 9.64815 2.64808M6.25 4.27061C4.54834 5.35684 3.09724 6.68958 2.01466 7.82861C0.661781 9.25203 0.661781 11.4146 2.01466 12.838C4.29641 15.2388 8.21523 18.5 12.6667 18.5C14.8461 18.5 16.8979 17.7183 18.6923 16.6385" stroke-opacity="0.2" stroke-width="2" stroke-linecap="round"/></symbol><symbol viewBox="0 0 24 24" id="lk" xmlns="http://www.w3.org/2000/svg"><ellipse cx="12" cy="17.5" rx="7" ry="3.5" stroke-width="1.5" stroke-linejoin="round"/><circle cx="12" cy="7" r="4" stroke-width="1.5" stroke-linejoin="round"/></symbol><symbol viewBox="0 0 40 40" id="lk-circle" xmlns="http://www.w3.org/2000/svg"><rect width="40" height="40" rx="20" fill-opacity="0.1"/><path d="M23.2727 14.5455C23.2727 16.3529 21.8075 17.8182 20 17.8182V20C23.0125 20 25.4546 17.5579 25.4546 14.5455H23.2727ZM20 17.8182C18.1925 17.8182 16.7273 16.3529 16.7273 14.5455H14.5455C14.5455 17.5579 16.9875 20 20 20V17.8182ZM16.7273 14.5455C16.7273 12.738 18.1925 11.2727 20 11.2727V9.09091C16.9875 9.09091 14.5455 11.533 14.5455 14.5455H16.7273ZM20 11.2727C21.8075 11.2727 23.2727 12.738 23.2727 14.5455H25.4546C25.4546 11.533 23.0125 9.09091 20 9.09091V11.2727ZM26.5455 26C26.5455 26.4186 26.1778 27.0912 24.9119 27.7241C23.7112 28.3245 21.9761 28.7273 20 28.7273V30.9091C22.2414 30.9091 24.3245 30.4572 25.8876 29.6756C27.3855 28.9267 28.7273 27.6902 28.7273 26H26.5455ZM20 28.7273C18.0239 28.7273 16.2888 28.3245 15.0882 27.7241C13.8222 27.0912 13.4546 26.4186 13.4546 26H11.2727C11.2727 27.6902 12.6145 28.9267 14.1124 29.6756C15.6755 30.4572 17.7587 30.9091 20 30.9091V28.7273ZM13.4546 26C13.4546 25.5815 13.8222 24.9089 15.0882 24.2759C16.2888 23.6755 18.0239 23.2727 20 23.2727V21.0909C17.7587 21.0909 15.6755 21.5428 14.1124 22.3244C12.6145 23.0733 11.2727 24.3098 11.2727 26H13.4546ZM20 23.2727C21.9761 23.2727 23.7112 23.6755 24.9119 24.2759C26.1778 24.9089 26.5455 25.5815 26.5455 26H28.7273C28.7273 24.3098 27.3855 23.0733 25.8876 22.3244C24.3245 21.5428 22.2414 21.0909 20 21.0909V23.2727Z"/></symbol><symbol viewBox="0 0 48 48" id="lk-sqeare" xmlns="http://www.w3.org/2000/svg"><rect width="48" height="48" rx="8" fill-opacity="0.1"/><path d="M27.6667 18.1667C27.6667 20.1917 26.025 21.8333 24 21.8333V23.8333C27.1296 23.8333 29.6667 21.2963 29.6667 18.1667H27.6667ZM24 21.8333C21.975 21.8333 20.3333 20.1917 20.3333 18.1667H18.3333C18.3333 21.2963 20.8704 23.8333 24 23.8333V21.8333ZM20.3333 18.1667C20.3333 16.1416 21.975 14.5 24 14.5V12.5C20.8704 12.5 18.3333 15.0371 18.3333 18.1667H20.3333ZM24 14.5C26.025 14.5 27.6667 16.1416 27.6667 18.1667H29.6667C29.6667 15.0371 27.1296 12.5 24 12.5V14.5ZM31.1667 30.4167C31.1667 30.9614 30.6991 31.7238 29.3275 32.4096C28.0157 33.0655 26.1336 33.5 24 33.5V35.5C26.3767 35.5 28.5779 35.0204 30.2219 34.1984C31.8061 33.4064 33.1667 32.1271 33.1667 30.4167H31.1667ZM24 33.5C21.8664 33.5 19.9843 33.0655 18.6725 32.4096C17.3009 31.7238 16.8333 30.9614 16.8333 30.4167H14.8333C14.8333 32.1271 16.1939 33.4064 17.7781 34.1984C19.4221 35.0204 21.6233 35.5 24 35.5V33.5ZM16.8333 30.4167C16.8333 29.8719 17.3009 29.1095 18.6725 28.4237C19.9843 27.7679 21.8664 27.3333 24 27.3333V25.3333C21.6233 25.3333 19.4221 25.8129 17.7781 26.6349C16.1939 27.427 14.8333 28.7063 14.8333 30.4167H16.8333ZM24 27.3333C26.1336 27.3333 28.0157 27.7679 29.3275 28.4237C30.6991 29.1095 31.1667 29.8719 31.1667 30.4167H33.1667C33.1667 28.7063 31.8061 27.427 30.2219 26.6349C28.5779 25.8129 26.3767 25.3333 24 25.3333V27.3333Z"/></symbol><symbol viewBox="0 0 26 26" id="open-pass" xmlns="http://www.w3.org/2000/svg"><path d="M12.9996 1.33331V3.66665M23.4996 4.83331L21.7496 6.58331M2.49964 4.83331L4.24964 6.58331M12.9997 24.6666C17.2046 24.6666 20.9486 21.9302 23.3564 19.6253C25.103 17.9534 25.103 15.0466 23.3564 13.3746C20.9486 11.0697 17.2046 8.33331 12.9997 8.33331C8.79477 8.33331 5.05072 11.0697 2.64295 13.3746C0.89636 15.0466 0.896361 17.9534 2.64295 19.6253C5.05073 21.9302 8.79477 24.6666 12.9997 24.6666ZM16.4996 16.5C16.4996 18.433 14.9326 20 12.9996 20C11.0666 20 9.49964 18.433 9.49964 16.5C9.49964 14.567 11.0666 13 12.9996 13C14.9326 13 16.4996 14.567 16.4996 16.5Z" stroke-width="2" stroke-linecap="round"/></symbol></svg>