<svg width="26" height="21" viewBox="0 0 26 21" fill="none" xmlns="http://www.w3.org/2000/svg">
<path d="M3.33333 1L22 19.6667M15 12.9421C14.3808 13.4963 13.5631 13.8333 12.6667 13.8333C10.7337 13.8333 9.16667 12.2663 9.16667 10.3333C9.16667 9.43692 9.50366 8.61922 10.0579 8M21.5424 14.5423C22.209 13.962 22.8053 13.3782 23.3187 12.8381C24.6716 11.4146 24.6716 9.25203 23.3187 7.82862C21.0369 5.42789 17.1181 2.16667 12.6667 2.16667C11.6267 2.16667 10.6159 2.34466 9.64815 2.64808M6.25 4.27061C4.54834 5.35684 3.09724 6.68958 2.01466 7.82861C0.661781 9.25203 0.661781 11.4146 2.01466 12.838C4.29641 15.2388 8.21523 18.5 12.6667 18.5C14.8461 18.5 16.8979 17.7183 18.6923 16.6385" stroke="#15181C" stroke-opacity="0.2" stroke-width="2" stroke-linecap="round"/>
</svg>
