<svg width="40" height="40" viewBox="0 0 40 40" fill="none" xmlns="http://www.w3.org/2000/svg">
<rect width="40" height="40" rx="20" fill="#15181C" fill-opacity="0.1"/>
<path d="M23.2727 14.5455C23.2727 16.3529 21.8075 17.8182 20 17.8182V20C23.0125 20 25.4546 17.5579 25.4546 14.5455H23.2727ZM20 17.8182C18.1925 17.8182 16.7273 16.3529 16.7273 14.5455H14.5455C14.5455 17.5579 16.9875 20 20 20V17.8182ZM16.7273 14.5455C16.7273 12.738 18.1925 11.2727 20 11.2727V9.09091C16.9875 9.09091 14.5455 11.533 14.5455 14.5455H16.7273ZM20 11.2727C21.8075 11.2727 23.2727 12.738 23.2727 14.5455H25.4546C25.4546 11.533 23.0125 9.09091 20 9.09091V11.2727ZM26.5455 26C26.5455 26.4186 26.1778 27.0912 24.9119 27.7241C23.7112 28.3245 21.9761 28.7273 20 28.7273V30.9091C22.2414 30.9091 24.3245 30.4572 25.8876 29.6756C27.3855 28.9267 28.7273 27.6902 28.7273 26H26.5455ZM20 28.7273C18.0239 28.7273 16.2888 28.3245 15.0882 27.7241C13.8222 27.0912 13.4546 26.4186 13.4546 26H11.2727C11.2727 27.6902 12.6145 28.9267 14.1124 29.6756C15.6755 30.4572 17.7587 30.9091 20 30.9091V28.7273ZM13.4546 26C13.4546 25.5815 13.8222 24.9089 15.0882 24.2759C16.2888 23.6755 18.0239 23.2727 20 23.2727V21.0909C17.7587 21.0909 15.6755 21.5428 14.1124 22.3244C12.6145 23.0733 11.2727 24.3098 11.2727 26H13.4546ZM20 23.2727C21.9761 23.2727 23.7112 23.6755 24.9119 24.2759C26.1778 24.9089 26.5455 25.5815 26.5455 26H28.7273C28.7273 24.3098 27.3855 23.0733 25.8876 22.3244C24.3245 21.5428 22.2414 21.0909 20 21.0909V23.2727Z" fill="#15181C"/>
</svg>
