<svg width="48" height="48" viewBox="0 0 48 48" fill="none" xmlns="http://www.w3.org/2000/svg">
<rect width="48" height="48" rx="8" fill="#15181C" fill-opacity="0.1"/>
<path d="M27.6667 18.1667C27.6667 20.1917 26.025 21.8333 24 21.8333V23.8333C27.1296 23.8333 29.6667 21.2963 29.6667 18.1667H27.6667ZM24 21.8333C21.975 21.8333 20.3333 20.1917 20.3333 18.1667H18.3333C18.3333 21.2963 20.8704 23.8333 24 23.8333V21.8333ZM20.3333 18.1667C20.3333 16.1416 21.975 14.5 24 14.5V12.5C20.8704 12.5 18.3333 15.0371 18.3333 18.1667H20.3333ZM24 14.5C26.025 14.5 27.6667 16.1416 27.6667 18.1667H29.6667C29.6667 15.0371 27.1296 12.5 24 12.5V14.5ZM31.1667 30.4167C31.1667 30.9614 30.6991 31.7238 29.3275 32.4096C28.0157 33.0655 26.1336 33.5 24 33.5V35.5C26.3767 35.5 28.5779 35.0204 30.2219 34.1984C31.8061 33.4064 33.1667 32.1271 33.1667 30.4167H31.1667ZM24 33.5C21.8664 33.5 19.9843 33.0655 18.6725 32.4096C17.3009 31.7238 16.8333 30.9614 16.8333 30.4167H14.8333C14.8333 32.1271 16.1939 33.4064 17.7781 34.1984C19.4221 35.0204 21.6233 35.5 24 35.5V33.5ZM16.8333 30.4167C16.8333 29.8719 17.3009 29.1095 18.6725 28.4237C19.9843 27.7679 21.8664 27.3333 24 27.3333V25.3333C21.6233 25.3333 19.4221 25.8129 17.7781 26.6349C16.1939 27.427 14.8333 28.7063 14.8333 30.4167H16.8333ZM24 27.3333C26.1336 27.3333 28.0157 27.7679 29.3275 28.4237C30.6991 29.1095 31.1667 29.8719 31.1667 30.4167H33.1667C33.1667 28.7063 31.8061 27.427 30.2219 26.6349C28.5779 25.8129 26.3767 25.3333 24 25.3333V27.3333Z" fill="#15181C"/>
</svg>
