<svg width="26" height="26" viewBox="0 0 26 26" fill="none" xmlns="http://www.w3.org/2000/svg">
<path d="M12.9996 1.33331V3.66665M23.4996 4.83331L21.7496 6.58331M2.49964 4.83331L4.24964 6.58331M12.9997 24.6666C17.2046 24.6666 20.9486 21.9302 23.3564 19.6253C25.103 17.9534 25.103 15.0466 23.3564 13.3746C20.9486 11.0697 17.2046 8.33331 12.9997 8.33331C8.79477 8.33331 5.05072 11.0697 2.64295 13.3746C0.89636 15.0466 0.896361 17.9534 2.64295 19.6253C5.05073 21.9302 8.79477 24.6666 12.9997 24.6666ZM16.4996 16.5C16.4996 18.433 14.9326 20 12.9996 20C11.0666 20 9.49964 18.433 9.49964 16.5C9.49964 14.567 11.0666 13 12.9996 13C14.9326 13 16.4996 14.567 16.4996 16.5Z" stroke="#5D21D0" stroke-width="2" stroke-linecap="round"/>
</svg>
